<svg width="56" height="56" viewBox="0 0 56 56" fill="none" xmlns="http://www.w3.org/2000/svg">
    <rect width="56" height="56" fill="white" style="fill:white;fill-opacity:1;"/>
    <path d="M10 12H15.1213C15.5874 12 15.9917 12.322 16.0959 12.7764L17.3425 18.2089M17.3425 18.2089L20.6712 32.7161C20.7754 33.1705 21.1797 33.4925 21.6458 33.4925H40.8107C41.2556 33.4925 41.647 33.1986 41.7711 32.7714L45.6286 19.4878C45.8144 18.8481 45.3345 18.2089 44.6683 18.2089H17.3425Z" stroke="#4D4D4D" style="stroke:#4D4D4D;stroke:color(display-p3 0.3000 0.3000 0.3000);stroke-opacity:1;" stroke-width="2" stroke-linecap="round"/>
    <path d="M27.7395 40.179C27.7395 41.707 26.4513 42.9999 24.7943 42.9999C23.1373 42.9999 21.8491 41.707 21.8491 40.179C21.8491 38.651 23.1373 37.3582 24.7943 37.3582C26.4513 37.3582 27.7395 38.651 27.7395 40.179Z" stroke="#4D4D4D" style="stroke:#4D4D4D;stroke:color(display-p3 0.3000 0.3000 0.3000);stroke-opacity:1;" stroke-width="2" stroke-linecap="round"/>
    <path d="M40.5618 40.179C40.5618 41.707 39.2736 42.9999 37.6166 42.9999C35.9596 42.9999 34.6714 41.707 34.6714 40.179C34.6714 38.651 35.9596 37.3582 37.6166 37.3582C39.2736 37.3582 40.5618 38.651 40.5618 40.179Z" stroke="#4D4D4D" style="stroke:#4D4D4D;stroke:color(display-p3 0.3000 0.3000 0.3000);stroke-opacity:1;" stroke-width="2" stroke-linecap="round"/>
</svg>
