<svg width="56" height="56" viewBox="0 0 56 56" fill="none" xmlns="http://www.w3.org/2000/svg">
    <rect width="56" height="56" fill="white" style="fill:white;fill-opacity:1;"/>
    <path fill-rule="evenodd" clip-rule="evenodd" d="M16.9645 13.4332H38.3686L43.5388 22.8651C43.3171 24.6271 41.6729 25.9992 39.6768 25.9992C37.7177 25.9992 36.096 24.6768 35.8283 22.9609C35.6705 21.9494 34.6848 21.1862 33.5269 21.2566C32.482 21.3201 31.6577 22.0459 31.515 22.9609C31.2473 24.6768 29.6256 25.9992 27.6665 25.9992C25.7074 25.9992 24.0857 24.6768 23.818 22.9609C23.6753 22.0459 22.851 21.3201 21.8061 21.2566C20.6482 21.1862 19.6624 21.9494 19.5047 22.9609C19.237 24.6768 17.6153 25.9992 15.6562 25.9992C13.6601 25.9992 12.0159 24.6271 11.7942 22.8651L16.9645 13.4332ZM11.765 22.919C11.7649 22.919 11.7653 22.9183 11.766 22.9167L11.765 22.919ZM39.6768 27.9324C37.7394 27.9324 36.0162 27.0955 34.9181 25.7964C34.7098 25.55 34.524 25.2869 34.3635 25.0098C34.051 24.4701 33.8343 23.877 33.7344 23.2494L33.7318 23.2335C33.7274 23.2047 33.6994 23.1836 33.6676 23.1855C33.6389 23.1873 33.6155 23.2074 33.6115 23.2334L33.6089 23.2495C33.5089 23.8772 33.2922 24.4704 32.9796 25.0102C32.8191 25.2872 32.6334 25.5501 32.4252 25.7964C31.3271 27.0955 29.604 27.9324 27.6665 27.9324C25.729 27.9324 24.0059 27.0955 22.9078 25.7964C22.6996 25.5501 22.5139 25.2872 22.3534 25.0102C22.0407 24.4704 21.824 23.8772 21.724 23.2494L21.7215 23.2334C21.7175 23.2074 21.6941 23.1873 21.6654 23.1855C21.6336 23.1836 21.6056 23.2047 21.6012 23.2335L21.5986 23.2494C21.4987 23.877 21.282 24.4701 20.9695 25.0098C20.809 25.287 20.6232 25.55 20.4149 25.7964C19.3168 27.0955 17.5936 27.9324 15.6562 27.9324C15.5446 27.9324 15.4337 27.9297 15.3236 27.9242V40.6171C15.3236 41.1479 15.7841 41.5781 16.3522 41.5781H38.9808C39.5488 41.5781 40.0093 41.1479 40.0093 40.6171V27.9242C39.8993 27.9296 39.7884 27.9324 39.6768 27.9324ZM42.0665 27.4816C44.0487 26.6965 45.4757 24.9645 45.6614 22.9115C45.6885 22.6122 45.6053 22.3151 45.4581 22.0465L40.2623 12.5681C39.9035 11.9134 39.1704 11.5 38.3686 11.5H16.9645C16.1626 11.5 15.4295 11.9134 15.0707 12.5681L9.87491 22.0465C9.72767 22.3151 9.6445 22.6122 9.67158 22.9115C9.85732 24.9645 11.2843 26.6965 13.2665 27.4816V40.6171C13.2665 42.2093 14.648 43.5 16.3522 43.5H38.9808C40.685 43.5 42.0665 42.2093 42.0665 40.6171V27.4816Z" fill="#4D4D4D" style="fill:#4D4D4D;fill:color(display-p3 0.3000 0.3000 0.3000);fill-opacity:1;"/>
</svg>
